<?xml version="1.0" encoding="utf-8"?>
<!-- Generator: Adobe Illustrator 22.1.0, SVG Export Plug-In . SVG Version: 6.00 Build 0)  -->
<svg version="1.1" id="Layer_1" xmlns="http://www.w3.org/2000/svg" xmlns:xlink="http://www.w3.org/1999/xlink" x="0px" y="0px"
	 viewBox="0 0 361 361" style="enable-background:new 0 0 361 361;" xml:space="preserve">
<style type="text/css">
	.st0{fill:#DD403A;stroke:#FFFFFF;stroke-width:0.5;stroke-linejoin:bevel;}
	.st1{fill:#5D4A66;stroke:#FFFFFF;stroke-width:0.5;stroke-linejoin:bevel;}
	.st2{fill:#D3F9B5;stroke:#FFFFFF;stroke-width:0.5;stroke-linejoin:bevel;}
	.st3{fill:#3772FF;stroke:#FFFFFF;stroke-width:0.5;stroke-linejoin:bevel;}
	.st4{fill:#F18F01;stroke:#FFFFFF;stroke-width:0.5;stroke-linejoin:bevel;}
</style>
<title>Artboard 2</title>
<g id="Logo_1_copy">
	<polygon class="st0" points="150.1,234.9 210.9,271.1 150.1,307.4 89.4,271.1 	"/>
	<polygon class="st0" points="150.1,234.9 150.1,162.4 89.4,198.6 89.4,271.1 	"/>
	<polygon class="st0" points="150.1,234.9 150.1,307.4 89.4,271.1 89.3,198.6 	"/>
	<polygon class="st0" points="210.9,198.6 210.8,271.1 150.1,234.9 150.1,162.4 	"/>
	<polygon class="st0" points="210.9,271.1 210.9,198.6 150.1,234.9 150.1,307.4 	"/>
	<polygon class="st0" points="150.1,162.3 210.9,198.6 150.1,234.9 89.3,198.6 	"/>
	<polygon class="st1" points="150.1,162.3 210.9,198.6 150.1,234.9 89.4,198.6 	"/>
	<polygon class="st1" points="150.1,162.4 150.1,89.8 89.4,126.1 89.4,198.6 	"/>
	<polygon class="st1" points="150.1,162.3 150.1,234.8 89.4,198.6 89.3,126.1 	"/>
	<polygon class="st1" points="210.9,126.1 210.8,198.6 150.1,162.4 150.1,89.8 	"/>
	<polygon class="st1" points="210.9,198.6 210.9,126.1 150.1,162.3 150.1,234.9 	"/>
	<polygon class="st1" points="150.1,89.8 210.9,126.1 150.1,162.3 89.3,126.1 	"/>
	<polygon class="st2" points="210.9,271.1 271.6,307.4 210.9,343.7 150.1,307.4 	"/>
	<polygon class="st2" points="210.9,271.2 210.9,198.6 150.1,234.9 150.2,307.4 	"/>
	<polygon class="st2" points="210.9,271.1 210.9,343.6 150.1,307.4 150.1,234.9 	"/>
	<polygon class="st2" points="271.6,234.9 271.6,307.4 210.9,271.2 210.8,198.6 	"/>
	<polygon class="st2" points="271.6,307.4 271.6,234.9 210.9,271.1 210.9,343.7 	"/>
	<polygon class="st2" points="210.9,198.6 271.6,234.9 210.9,271.1 150.1,234.9 	"/>
	<polygon class="st3" points="150.1,89.9 210.9,126.1 150.1,162.4 89.4,126.1 	"/>
	<polygon class="st3" points="150.1,89.9 150.1,17.3 89.4,53.6 89.4,126.1 	"/>
	<polygon class="st3" points="150.1,89.9 150.1,162.3 89.4,126.1 89.3,53.6 	"/>
	<polygon class="st3" points="210.9,53.6 210.8,126.1 150.1,89.9 150.1,17.3 	"/>
	<polygon class="st3" points="210.9,126.1 210.9,53.6 150.1,89.9 150.1,162.4 	"/>
	<polygon class="st3" points="150.1,17.3 210.9,53.6 150.1,89.9 89.3,53.6 	"/>
	<polygon class="st4" points="210.9,126.8 271.6,163.1 210.9,199.4 150.1,163.1 	"/>
	<polygon class="st4" points="210.9,126.9 210.9,54.3 150.1,90.6 150.2,163.1 	"/>
	<polygon class="st4" points="210.9,126.8 210.9,199.3 150.1,163.1 150.1,90.6 	"/>
	<polygon class="st4" points="271.6,90.6 271.6,163.1 210.9,126.9 210.8,54.3 	"/>
	<polygon class="st4" points="271.6,163.1 271.6,90.6 210.9,126.8 210.9,199.4 	"/>
	<polygon class="st4" points="210.9,54.3 271.6,90.6 210.9,126.8 150.1,90.6 	"/>
</g>
</svg>
